<svg width="125" height="125" viewBox="0 0 125 125" fill="none" xmlns="http://www.w3.org/2000/svg">
<g clip-path="url(#clip0_14_41)">
<path d="M122.643 56.9308L68.0664 2.35754C64.9253 -0.785523 59.8276 -0.785523 56.6826 2.35754L45.3496 13.6906L59.7261 28.067C63.0669 26.9381 66.8979 27.6954 69.561 30.3585C72.2368 33.0387 72.9888 36.9025 71.8325 40.254L85.6875 54.1095C89.0396 52.9547 92.9072 53.7018 95.5845 56.3834C99.3262 60.1237 99.3262 66.1857 95.5845 69.9284C91.8418 73.6715 85.7798 73.6715 82.0352 69.9284C79.2207 67.111 78.5254 62.9777 79.9502 59.5104L67.0293 46.5895L67.0278 80.5919C67.9645 81.0551 68.82 81.6668 69.561 82.4035C73.3027 86.1437 73.3027 92.2062 69.561 95.9518C65.8184 99.693 59.7534 99.693 56.0161 95.9518C52.2744 92.2062 52.2744 86.1442 56.0161 82.4039C56.9128 81.5068 57.9784 80.7963 59.1514 80.3136V45.9943C57.9767 45.5147 56.9105 44.8039 56.0161 43.9039C53.1812 41.0729 52.4995 36.9132 53.9521 33.4323L39.7803 19.2589L2.3584 56.6784C-0.786133 59.8243 -0.786133 64.9225 2.3584 68.0661L56.9355 122.64C60.0776 125.784 65.1743 125.784 68.3203 122.64L122.642 68.3195C125.786 65.1749 125.786 60.0739 122.642 56.9308" fill="#DE4C36"/>
</g>
<defs>
<clipPath id="clip0_14_41">
<rect width="125" height="125" fill="white"/>
</clipPath>
</defs>
</svg>
