<svg width="125" height="125" viewBox="0 0 125 125" fill="none" xmlns="http://www.w3.org/2000/svg">
<g clip-path="url(#clip0_14_49)">
<path d="M51.835 55.292V37.5903H67.4165C68.9009 37.5903 70.3315 37.7139 71.7095 37.9614C73.0874 38.2085 74.3066 38.6499 75.3667 39.2861C76.4263 39.9224 77.2744 40.8057 77.9106 41.936C78.5464 43.0669 78.8647 44.5156 78.8647 46.2817C78.8647 49.4619 77.9106 51.7588 76.0024 53.1719C74.0947 54.5855 71.6567 55.292 68.6885 55.292H51.835ZM35.1929 24.6582V100.342H71.8687C75.2607 100.342 78.5645 99.918 81.7798 99.0698C84.9951 98.2217 87.8569 96.9146 90.3657 95.1479C92.874 93.3813 94.8706 91.1021 96.3545 88.311C97.8389 85.5195 98.5806 82.2158 98.5806 78.3999C98.5806 73.665 97.4321 69.6196 95.1357 66.2632C92.8389 62.9062 89.3584 60.5566 84.6943 59.2139C88.0864 57.5889 90.6484 55.5039 92.3799 52.96C94.1108 50.416 94.9766 47.2363 94.9766 43.4199C94.9766 39.8867 94.3936 36.9189 93.2275 34.5161C92.0615 32.1138 90.4185 30.188 88.2983 28.7393C86.1787 27.2905 83.6348 26.248 80.6665 25.6123C77.6987 24.9761 74.4126 24.6582 70.8086 24.6582H35.1929ZM51.835 87.4097V66.6338H69.9605C73.5645 66.6338 76.4619 67.4639 78.6528 69.125C80.8433 70.7856 81.939 73.5591 81.939 77.4458C81.939 79.4248 81.603 81.0498 80.9316 82.3218C80.2603 83.5938 79.3594 84.6011 78.2285 85.3428C77.0981 86.085 75.7905 86.6147 74.3066 86.9331C72.8223 87.2505 71.2681 87.4097 69.6426 87.4097H51.835Z" fill="white"/>
<path d="M23.3948 60.629C23.6185 60.4395 23.8653 60.2762 24.13 60.1428C23.8573 60.2633 23.6085 60.4278 23.3948 60.629Z" fill="#F0D6B7"/>
<path d="M36.7371 77.8572C37.0061 79.6529 37.8131 95.6185 49.138 104.516C51.4392 104.857 53.757 105.088 56.0826 105.207C57.3379 102.648 61.9647 102.844 64.982 103.501C61.1992 101.663 57.8731 99.0775 55.2263 95.9171C51.7032 92.99 49.3683 88.9818 48.6269 84.588C54.6704 92.5644 59.6648 99.5171 70.6534 103.04C78.9699 105.693 88.6807 101.825 95.0695 97.555C97.5314 95.5227 99.6023 93.0978 101.189 90.3891C108.434 79.4206 111.803 66.5361 110.806 53.6166C111.01 48.6279 110.25 43.6458 108.564 38.9179C106.533 35.0449 99.6693 31.5814 95.6523 35.079C95.586 34.7331 95.5619 34.381 95.5806 34.0297C94.9394 34.6013 94.5494 35.0193 94.5494 35.0193C94.2163 34.3709 94.03 33.6632 94.0024 32.942C94.0596 31.2624 94.7865 29.6664 96.0355 28.4781C97.2845 27.2898 98.962 26.5982 100.727 26.5439C98.8165 24.0683 96.5891 21.8288 94.0966 19.877C85.3537 17.0346 75.9244 16.7052 66.986 18.9301C60.7901 20.1973 55.0534 22.9926 50.3516 27.0354C45.6498 31.0782 42.1482 36.2264 40.1982 41.9635C39.3433 45.1306 38.7615 48.3589 38.4587 51.6162C38.3197 55.3868 40.3238 58.6755 40.4762 62.7788C39.4047 64.4594 36.1319 64.6684 33.8678 64.5532C33.7019 63.7556 33.5002 62.9366 33.2581 62.139C31.4749 61.193 29.5678 60.4759 27.5867 60.0063C29.3241 60.6825 30.7424 61.9388 31.5753 63.5394C32.4082 65.14 32.5985 66.9747 32.1103 68.6993C30.4381 67.7907 30.0391 63.794 28.0754 63.6788C25.2688 63.5167 25.7799 68.8656 25.7934 71.9965C24.8217 70.6209 24.2337 69.0328 24.0847 67.3815C23.9357 65.7302 24.2305 64.07 24.9415 62.557C23.6683 61.9641 22.9509 62.8172 22.2515 63.4826C21.2563 67.9016 19.7992 71.4718 22.5295 75.9377C23.3086 76.7989 24.2857 77.4778 25.3851 77.9216C26.4845 78.3655 27.6766 78.5623 28.8689 78.497C31.4109 78.2581 32.0341 75.8354 34.8048 75.8609C35.316 75.9383 35.7849 76.1774 36.1355 76.5396C36.4862 76.9019 36.6981 77.3661 36.7371 77.8572ZM65.65 86.162L64.305 85.9018C64.305 85.9018 62.8972 81.2098 63.5742 80.3311C63.9329 79.8747 65.9055 79.188 68.6672 80.4506C68.6493 80.4548 65.3765 80.9752 65.65 86.162ZM91.2317 91.882C86.2477 93.4902 80.842 93.4691 75.8719 91.8222C73.5339 90.1925 71.5754 88.1201 70.1198 85.7355C69.4249 84.8824 65.9638 82.7155 70.066 82.7113C73.2806 90.3891 84.323 89.5018 93.6348 89.2928C93.2056 90.4144 92.3474 91.3363 91.2317 91.882ZM92.5767 85.0572C92.3656 83.5525 92.3656 82.0278 92.5767 80.5231C97.2946 79.646 101.797 77.9312 105.847 75.4685C104.838 78.1115 103.049 80.4213 100.694 82.1207C98.3396 83.82 95.5194 84.8367 92.5723 85.0487L92.5767 85.0572ZM104.933 50.6223C104.112 50.8825 98.7906 53.8726 99.2031 50.1019C99.4115 48.9913 99.9588 47.9636 100.777 47.1467C101.595 46.3298 102.647 45.76 103.803 45.508C103.764 44.9399 103.764 44.37 103.803 43.8019H104.157C105.649 47.1784 107.405 50.4436 109.412 53.5697C107.99 56.7176 98.6516 59.4987 98.8041 53.8512C100.822 52.9982 104.305 53.6806 106.094 52.61C105.672 51.5138 105.197 50.4773 104.749 49.3853L104.933 50.6223ZM81.6778 70.8832C81.7579 71.0201 81.8269 71.1627 81.884 71.3097C82.292 69.1471 83.0452 66.6177 84.3409 66.9888C84.9706 67.1558 85.5278 67.51 85.9311 67.9995C86.3343 68.4891 86.5626 69.0885 86.5826 69.7102C85.0724 70.6401 83.6503 71.6933 82.3324 72.8581C82.6238 74.1377 82.978 75.4173 84.6771 75.7074C89.6357 76.5136 95.4057 72.8197 98.9744 71.5315C101.185 67.9827 98.7816 66.6774 96.791 64.3954C92.7112 59.7034 87.2416 53.9195 87.4389 46.9071C89.0887 45.7682 89.2322 48.6431 89.4653 49.1678C92.4929 54.6209 96.3329 59.6291 100.866 64.0371C101.826 65.0352 103.408 65.995 103.583 66.6561C104.09 68.5798 102.265 70.8832 102.476 72.1585C96.7951 76.4139 89.6709 78.5387 82.4534 78.1302C81.4394 77.2049 80.8039 75.967 80.6602 74.6373C80.5165 73.3076 80.874 71.9726 81.6688 70.8704L81.6778 70.8832ZM90.4561 80.7833C90.7408 82.2757 90.8551 83.7931 90.7969 85.3089C82.6776 85.6928 73.0788 83.7819 70.9492 78.3605C77.1923 80.4888 83.8443 81.3108 90.4516 80.7705L90.4561 80.7833ZM71.3752 43.8957C72.4172 46.6899 73.8937 49.3196 75.7554 51.6972C76.7776 52.6441 78.7592 53.7958 77.7773 56.4276C77.0825 57.4466 76.0788 58.2409 74.899 58.7053C71.3572 59.6992 63.1035 58.9101 65.8966 54.7086C68.8242 54.8366 72.765 56.5172 74.9529 54.4953C74.5269 53.847 74.0158 53.0408 73.5092 52.1451C71.2676 53.493 65.1075 53.5527 65.1075 50.1019C65.1075 46.4678 71.1107 45.6915 71.1107 45.6915L71.1555 45.7938C71.0892 45.1496 71.1624 44.4992 71.3707 43.8829L71.3752 43.8957ZM56.921 31.4065C62.2785 27.9301 64.9909 29.9136 66.3359 32.2084C66.6829 32.3387 66.9955 32.5399 67.2517 32.7978C67.5079 33.0556 67.7015 33.3639 67.8186 33.7008C67.9358 34.0377 67.9738 34.395 67.9298 34.7474C67.8859 35.0998 67.7611 35.4387 67.5644 35.7402C60.131 34.0937 56.4368 38.7004 54.1817 43.4777C53.6033 44.4758 53.5719 43.7677 53.2402 42.8976C53.1109 42.7226 53.018 42.5257 52.9667 42.3175C52.8549 42.1281 52.7161 41.9545 52.5542 41.8014C51.4782 40.7478 50.9178 35.3008 56.921 31.4065Z" fill="#F0D6B7"/>
<path d="M18.2255 124.892H57.468C57.2886 124.316 57.1138 123.749 56.9389 123.212C55.9884 120.503 55.2746 117.723 54.8049 114.903C49.9937 112.919 45.3644 110.558 40.9649 107.843C40.578 107.504 40.2183 107.137 39.8889 106.747L16.2798 116.784C16.2798 116.784 17.1271 120 18.2255 124.892Z" fill="#335061"/>
<path d="M32.3479 29.8581C33.0289 29.6589 33.7311 29.533 34.4416 29.4828C35.551 29.6282 36.6727 29.6696 37.7906 29.6065C40.0054 29.0818 41.8794 24.3557 43.5517 22.5941C44.8945 21.4195 46.3028 20.3146 47.7705 19.2841C41.6489 21.2899 36.2846 24.9678 32.3479 29.8581Z" fill="#6D6B6D"/>
<path d="M22.2337 53.6849C23.6498 52.9727 25.2303 52.6081 26.832 52.6239C28.4337 52.6397 30.0059 53.0356 31.4061 53.7756C32.8064 54.5156 33.9904 55.5764 34.8508 56.8618C35.7113 58.1471 36.221 59.6165 36.3337 61.1366C39.4451 61.0599 37.4949 57.4428 36.9345 55.1096C35.2802 48.2507 39.1179 40.863 37.7953 34.3752C20.4628 36.8407 21.4402 49.5048 22.2337 53.6849Z" fill="#6D6B6D"/>
<path d="M49.4563 16.4262C41.2966 18.6272 30.8416 24.2661 27.488 31.2401C29.1427 30.8983 30.7675 30.4363 32.3479 29.8581C36.2846 24.9678 41.649 21.2899 47.7705 19.2841C48.0252 19.0641 48.2634 18.8275 48.4834 18.576C49.3442 18.1793 50.6174 18.2092 50.6667 16.9765C50.2946 16.5968 49.9001 16.3068 49.4563 16.4262Z" fill="#DCD9D8"/>
<path d="M23.6817 38.325C20.0951 42.0999 20.8304 49.1678 21.2697 54.1968C21.5856 54.0096 21.9119 53.8388 22.2471 53.6849C21.4401 49.509 20.4807 36.8407 37.8086 34.3752C37.6643 33.6573 37.4512 32.9534 37.172 32.2724C32.017 32.5365 27.1752 34.7089 23.6817 38.325Z" fill="#DCD9D8"/>
<path d="M36.7373 77.8572C36.7007 77.3728 36.4959 76.9138 36.155 76.5524C35.8141 76.191 35.3565 75.9477 34.8543 75.861C36.3562 78.7103 32.5409 79.606 32.1643 81.6406C32.2138 82.8396 32.4018 84.0297 32.7247 85.1895C34.0534 90.276 36.2413 95.1234 39.2031 99.5427C40.4213 100.97 41.9318 102.147 43.6427 103.002C45.3537 103.857 47.2294 104.372 49.1561 104.516C37.8133 95.6228 37.0063 79.6529 36.7373 77.8572Z" fill="#F7E4CD"/>
<path d="M86.5601 69.6888C86.5401 69.0671 86.3119 68.4678 85.9086 67.9782C85.5053 67.4887 84.9482 67.1345 84.3184 66.9675C83.0228 66.6177 82.2696 69.1258 81.8616 71.2884C82.0538 71.7924 82.2037 72.3102 82.3099 72.8368C83.6279 71.672 85.05 70.6187 86.5601 69.6888Z" fill="#F7E4CD"/>
<path d="M99.1987 50.0934C98.7862 53.8641 104.13 50.874 104.928 50.6138L104.736 49.3939C104.226 48.1459 103.911 46.834 103.799 45.4995C102.643 45.7514 101.59 46.3213 100.772 47.1382C99.9544 47.955 99.4071 48.9828 99.1987 50.0934Z" fill="#F7E4CD"/>
<path d="M65.103 50.0934C65.103 53.5441 71.2496 53.4844 73.5048 52.1365C72.2902 50.1867 71.4904 48.0287 71.151 45.7853L71.1062 45.6829C71.1062 45.6829 65.103 46.4592 65.103 50.0934Z" fill="#F7E4CD"/>
<path d="M22.3009 63.4912C22.1315 63.6642 21.9437 63.82 21.7405 63.9561C21.8481 62.6904 22.438 61.5057 23.3993 60.6248C23.6121 60.4255 23.8593 60.2624 24.1301 60.1428C24.6732 59.8919 25.2649 59.7502 25.8681 59.7267C26.4714 59.7032 27.0732 59.7984 27.6361 60.0063C29.6172 60.4759 31.5242 61.193 33.3074 62.139C32.4422 59.3068 30.9582 56.7518 27.8916 56.4319C26.6594 56.3353 25.4193 56.4781 24.2469 56.8517C23.0745 57.2252 21.9942 57.8217 21.0716 58.6049C20.1491 59.3881 19.4035 60.3416 18.8804 61.4074C18.3572 62.4732 18.0673 63.6292 18.0283 64.8049C18.0294 68.9227 19.6531 72.8905 22.5789 75.9249C19.8441 71.4803 21.3056 67.9102 22.3009 63.4912Z" fill="#F7E4CD"/>
<path d="M67.013 18.9514C75.9514 16.7266 85.3807 17.0559 94.1236 19.8983C93.4274 19.3812 92.6933 18.9123 91.9268 18.495C83.4578 13.948 69.1246 10.5314 60.0953 14.8011C52.8278 18.2476 43.0004 23.9547 39.6514 31.1847C41.027 34.6394 41.22 38.4194 40.2028 41.9848C42.1547 36.2451 45.6597 31.0951 50.3656 27.0521C55.0716 23.009 60.813 20.2152 67.013 18.9514Z" fill="#F7E4CD"/>
<path d="M94.0159 32.9634C94.0434 33.6846 94.2297 34.3923 94.5628 35.0406C94.5628 35.0406 94.9529 34.6141 95.594 34.0511C95.733 30.9202 99.4721 29.1373 103.807 30.3572C102.812 29.1373 101.803 27.8448 100.754 26.5652C98.9865 26.6164 97.3056 27.3065 96.0538 28.4952C94.802 29.6838 94.0732 31.2816 94.0159 32.9634Z" fill="#F7E4CD"/>
<path d="M53.2358 42.9019C53.5676 43.7549 53.6035 44.4801 54.1773 43.482C53.7988 43.4063 53.4632 43.1996 53.2358 42.9019Z" fill="#F7E4CD"/>
<path d="M52.9668 42.3218C52.837 41.22 53.0133 40.1052 53.4779 39.0885C54.3817 36.9663 55.9043 35.1341 57.8663 33.8078C59.8283 32.4815 62.1478 31.7164 64.5517 31.6027C65.1841 31.6982 65.7923 31.9051 66.345 32.2127C65 29.9178 62.31 27.9472 56.93 31.4107C50.9314 35.3051 51.4738 40.7521 52.5678 41.7928C52.7259 41.9507 52.8602 42.1287 52.9668 42.3218Z" fill="#F7E4CD"/>
<path d="M16.2797 116.784L39.8888 106.747C38.1582 104.836 35.0513 101.202 34.5088 101.385C25.4472 105.218 16.9838 110.22 9.35742 116.25C10.7304 119.067 11.9426 121.952 12.9889 124.892H18.2254C17.127 120 16.2797 116.784 16.2797 116.784Z" fill="#49728B"/>
<path d="M111.106 125.007C112.082 122.123 112.902 119.193 113.563 116.229C113.725 115.457 114.038 114.203 114.263 113.004L101.324 103.859C103.817 109.114 104.026 115.093 101.907 120.495C102.355 122.081 103.942 122.691 104.597 124.12C104.444 124.376 104.292 124.628 104.148 124.884H110.766C110.889 124.894 111.007 124.937 111.106 125.007Z" fill="#335061"/>
<path d="M95.9392 102.14C96.6473 101.786 97.4461 101.63 98.2436 101.688L97.1766 100.933C96.7084 101.28 96.2921 101.686 95.9392 102.14Z" fill="#335061"/>
<path d="M114.496 110.385C114.164 108.095 110.909 106.397 109.241 104.985C106.175 102.371 104.256 100.067 101.068 97.6232C99.9297 98.8863 98.6195 99.9994 97.1721 100.933L98.2391 101.688C98.897 101.791 99.5195 102.042 100.055 102.421C100.59 102.799 101.022 103.294 101.315 103.864L114.245 113.004C114.449 112.146 114.534 111.265 114.496 110.385Z" fill="#49728B"/>
<path d="M82.2876 124.551C82.2911 124.66 82.3046 124.768 82.3279 124.875H84.4754C84.4754 124.498 84.6327 124.137 84.9127 123.871C85.1927 123.604 85.5724 123.455 85.9684 123.455C86.3643 123.455 86.7441 123.604 87.0241 123.871C87.304 124.137 87.4613 124.498 87.4613 124.875H90.9314V124.747C89.703 124.133 87.0175 122.806 85.5514 122.218C83.6505 121.459 82.2876 124.551 82.2876 124.551Z" fill="white"/>
<path d="M82.2875 124.551C82.2875 124.551 83.6325 121.437 85.5603 122.214C87.0039 122.802 89.6894 124.129 90.9403 124.743C90.9851 123.805 91.0299 122.866 91.0927 121.928C88.322 122.094 86.7842 119.543 84.843 119.347C83.1483 119.172 81.7046 121.203 79.5078 120.324C79.0012 120.853 78.5439 121.429 78.0283 121.949C78.8266 122.876 79.559 123.852 80.2207 124.871H82.3547C82.3225 124.766 82.3 124.659 82.2875 124.551Z" fill="#DCD9D8"/>
<path d="M55.1142 107.357C51.6455 107.348 48.2044 106.771 44.9416 105.651C44.8132 105.769 44.7125 105.911 44.646 106.069C44.5796 106.226 44.549 106.395 44.5562 106.565C44.5634 106.735 44.6083 106.901 44.6878 107.053C44.7674 107.205 44.8798 107.339 45.0178 107.447C48.0733 108.707 51.3052 109.537 54.6121 109.912C54.9354 109.095 55.1054 108.23 55.1142 107.357Z" fill="white"/>
<path d="M54.4237 111.196C54.4294 110.764 54.4912 110.334 54.6075 109.916C51.3006 109.542 48.0687 108.711 45.0132 107.451C47.7325 109.492 50.9866 110.787 54.4237 111.196Z" fill="#DCD9D8"/>
<path d="M100.405 118.123C100.706 116.908 100.816 115.658 100.732 114.412C100.637 112.429 100.337 110.461 99.8352 108.534C98.3257 108.36 96.7961 108.431 95.3115 108.743C93.9665 109.003 92.5812 109.264 92.3122 110.821C92.0432 112.377 92.8592 113.158 92.0387 114.455C91.2183 115.751 89.8553 114.975 88.4924 115.734C87.5644 116.263 88.1517 117.632 88.6224 118.456C92.2418 119.239 95.9358 119.668 99.6469 119.735C100.006 119.249 100.264 118.702 100.405 118.123Z" fill="#D33833"/>
<path d="M59.8262 124.632C59.8979 124.815 59.9741 125.007 60.0369 125.178C60.0997 125.349 60.1669 125.575 60.2252 125.771L60.1848 125.272L59.8262 124.632Z" fill="#D33833"/>
<path d="M77.7638 119.113C77.7937 118.362 77.825 117.613 77.8579 116.865C76.4332 117.284 74.8943 117.171 73.5539 116.549C69.3531 114.369 73.3298 115.013 71.8413 112.122C70.139 111.261 68.2735 110.732 66.3537 110.565C60.8482 110.565 58.7321 109.511 59.3239 115.551C59.6333 118.793 59.9112 122.03 60.1802 125.276C60.6286 126.078 61.0321 126.799 61.3549 127.409C64.234 127.144 67.0282 126.333 69.5728 125.024C72.4142 123.197 75.1486 121.224 77.7638 119.113Z" fill="#D33833"/>
<path d="M79.8442 116.02C79.9384 116.4 80.037 116.826 80.1312 117.342C80.5355 117.549 80.9825 117.669 81.4407 117.693C81.8989 117.717 82.3571 117.646 82.7831 117.483C83.209 117.321 83.5924 117.072 83.9061 116.753C84.2198 116.434 84.4563 116.054 84.5988 115.639C84.7413 115.224 84.7864 114.784 84.731 114.351C84.6755 113.918 84.5208 113.501 84.2778 113.131C84.0348 112.76 83.7094 112.445 83.3244 112.207C82.9395 111.97 82.5045 111.815 82.05 111.755C82.1994 112.596 82.0667 113.461 81.6708 114.226C81.2749 114.992 80.6359 115.619 79.8442 116.02Z" fill="#D33833"/>
<path d="M88.4791 115.751C89.8241 114.971 91.2094 115.751 92.0254 114.472C92.8414 113.192 92.0254 112.395 92.2989 110.838C92.5724 109.281 93.9353 109.021 95.2982 108.76C96.7828 108.448 98.3124 108.377 99.8219 108.551C99.6458 107.484 99.0961 106.504 98.2617 105.77C94.9126 103.911 89.044 109.289 86.3137 110.432L86.0581 110.531C86.4627 111.275 86.7282 112.08 86.8427 112.911C87.4465 112.769 88.0683 112.708 88.6898 112.731C89.1055 112.747 89.5193 112.794 89.9272 112.872C90.1289 112.911 90.3262 112.958 90.5235 113.009C90.8981 113.109 91.2627 113.24 91.6129 113.401C90.4704 113.445 89.3344 113.588 88.2191 113.828C87.8995 113.917 87.5968 114.053 87.3224 114.233C87.1998 115.509 87.1474 116.79 87.1655 118.072C87.6377 118.2 88.1189 118.319 88.6091 118.43C88.1384 117.65 87.551 116.28 88.4791 115.751Z" fill="#EF3D3A"/>
<path d="M59.324 115.547C58.7456 109.507 60.8483 110.56 66.3538 110.56C68.2735 110.727 70.1391 111.257 71.8414 112.117C73.3298 115.009 69.3531 114.365 73.554 116.545C74.8944 117.166 76.4333 117.279 77.858 116.86V116.592C76.5667 115.975 75.1804 115.557 73.7512 115.355C73.2001 115.275 72.6449 115.224 72.0879 115.201C72.5059 115.01 72.943 114.858 73.3926 114.749C74.8004 114.539 76.1686 114.135 77.4545 113.55C77.4545 113.213 77.4814 112.876 77.4948 112.544C77.194 112.521 76.8947 112.482 76.5982 112.429C76.33 112.381 76.0651 112.318 75.8046 112.241C75.3471 112.103 74.9055 111.922 74.4865 111.699C73.6885 111.273 73.0025 110.778 72.1328 110.326C68.7392 108.593 65.1043 107.328 61.337 106.568C57.2078 105.817 57.172 111.281 57.3468 115.308C57.3468 115.734 57.3827 116.127 57.4051 116.502C57.7849 119.305 58.6072 122.037 59.844 124.606L60.1982 125.246C59.9158 122.03 59.6333 118.788 59.324 115.547Z" fill="#EF3D3A"/>
<path d="M82.0544 111.755C81.1125 111.774 80.2003 112.072 79.4451 112.608C79.3807 113.193 79.3912 113.783 79.4765 114.365C79.5258 114.702 79.6021 115.026 79.6917 115.38L79.8307 115.939V116.012C80.624 115.614 81.2657 114.989 81.6648 114.225C82.0639 113.461 82.2002 112.596 82.0544 111.755Z" fill="#EF3D3A"/>
<path d="M53.4778 39.0885C53.0132 40.1052 52.837 41.22 52.9667 42.3217C53.0181 42.53 53.1109 42.7269 53.2402 42.9018C53.4676 43.1996 53.8031 43.4063 54.1817 43.482C56.4234 38.7047 60.1311 34.098 67.5644 35.7444C67.7612 35.443 67.8859 35.1041 67.9299 34.7517C67.9738 34.3993 67.9359 34.042 67.8187 33.7051C67.7015 33.3682 67.508 33.0599 67.2517 32.802C66.9955 32.5441 66.6829 32.3429 66.336 32.2126C65.7832 31.905 65.1751 31.6982 64.5426 31.6027C62.1404 31.718 59.8227 32.4839 57.8625 33.81C55.9023 35.1362 54.381 36.9676 53.4778 39.0885Z" fill="#231F20"/>
<path d="M98.7861 53.8598C98.6426 59.5072 107.972 56.7262 109.394 53.5783C107.387 50.4521 105.631 47.1869 104.139 43.8104H103.785C103.746 44.3785 103.746 44.9485 103.785 45.5166C103.897 46.8511 104.213 48.1629 104.722 49.4109C105.148 50.5029 105.641 51.5436 106.067 52.6356C104.287 53.6892 100.795 53.0195 98.7861 53.8598Z" fill="#231F20"/>
<path d="M74.9439 54.4825C72.756 56.5044 68.8152 54.8238 65.8876 54.6958C63.0945 58.8973 71.3483 59.6864 74.8901 58.6925C76.0698 58.2281 77.0735 57.4338 77.7684 56.4148C78.7502 53.783 76.7686 52.6313 75.7464 51.6844C73.8847 49.3068 72.4083 46.6771 71.3662 43.8829C71.1582 44.4948 71.0835 45.1407 71.1465 45.781C71.4859 48.0244 72.2857 50.1825 73.5003 52.1323C74.0114 53.028 74.518 53.8342 74.9439 54.4825Z" fill="#231F20"/>
<path d="M82.4354 78.1216C89.6529 78.5302 96.7771 76.4054 102.458 72.15C102.247 70.8704 104.072 68.567 103.565 66.6476C103.39 65.9864 101.808 65.0267 100.848 64.0286C96.3149 59.6206 92.4749 54.6124 89.4473 49.1593C89.2097 48.6346 89.0662 45.7469 87.4208 46.8986C87.2236 53.9024 92.6932 59.6949 96.773 64.3869C98.7636 66.6689 101.167 67.9741 98.9564 71.523C95.3697 72.8026 89.6177 76.5093 84.6591 75.6989C82.9599 75.4216 82.6058 74.142 82.3143 72.8495C82.2082 72.323 82.0583 71.8052 81.866 71.3012C81.8088 71.1542 81.7399 71.0116 81.6598 70.8746C80.8674 71.9748 80.5106 73.3065 80.6526 74.6333C80.7946 75.9601 81.4262 77.196 82.4354 78.1216Z" fill="#231F20"/>
<path d="M24.13 60.1428C23.8738 60.2736 23.6345 60.4325 23.4171 60.6163C22.4558 61.4972 21.8659 62.6819 21.7583 63.9476C21.9615 63.8115 22.1493 63.6557 22.3187 63.4826C23.0047 62.8172 23.722 61.9599 25.0087 62.557C24.2977 64.07 24.0028 65.7303 24.1518 67.3815C24.3009 69.0328 24.8888 70.6209 25.8605 71.9965C25.8605 68.8699 25.336 63.521 28.1425 63.6788C30.1062 63.794 30.5052 67.7907 32.1775 68.6993C32.6609 66.9717 32.4643 65.1357 31.6247 63.5364C30.785 61.9371 29.3601 60.6847 27.618 60.0148C27.0583 59.808 26.46 59.7127 25.86 59.7347C25.2601 59.7567 24.6713 59.8956 24.13 60.1428Z" fill="#231F20"/>
<path d="M92.5812 80.5103C92.3701 82.015 92.3701 83.5398 92.5812 85.0445C95.5307 84.8322 98.353 83.814 100.709 82.1122C103.065 80.4104 104.854 78.0975 105.861 75.4515C101.808 77.9167 97.3025 79.6329 92.5812 80.5103Z" fill="#231F20"/>
<path d="M90.7968 85.3089C90.8552 83.7858 90.7394 82.2612 90.4516 80.762C83.8453 81.3063 77.1932 80.4887 70.9492 78.3648C73.0788 83.7904 82.6776 85.7013 90.7968 85.3089Z" fill="#231F20"/>
<path d="M70.066 82.707C65.9637 82.707 69.4248 84.8824 70.1198 85.7312C71.5762 88.1178 73.5362 90.1917 75.8763 91.8222C80.8464 93.4692 86.2521 93.4902 91.2362 91.882C92.3527 91.3352 93.211 90.4074 93.6392 89.2843C84.3229 89.4976 73.2805 90.3805 70.066 82.707Z" fill="#231F20"/>
<path d="M101.96 124.892C100.902 123.284 99.2258 122.132 97.2886 121.68C95.895 121.413 94.4475 121.593 93.1729 122.192C93.1371 123.045 93.0922 123.962 93.0339 124.888L101.96 124.892Z" fill="#81B0C4"/>
<path d="M88.5596 105.566C85.4841 105.826 81.8661 107.157 78.4632 107.353C78.1539 107.353 77.8445 107.378 77.5397 107.378C77.2348 107.378 76.9299 107.378 76.643 107.336C76.047 107.286 75.458 107.177 74.8855 107.012C74.5985 106.928 74.3171 106.828 74.0427 106.713C74.0427 106.935 73.7244 106.854 73.675 107.037C74.0561 107.319 74.4238 107.575 74.7824 107.801C75.1411 108.027 75.4953 108.227 75.8495 108.411C76.5241 108.758 77.2387 109.03 77.979 109.221C79.1748 109.505 80.4053 109.634 81.6374 109.605C82.0857 109.605 82.5879 109.605 83.1035 109.567C84.964 108.274 86.6139 106.768 88.5596 105.566Z" fill="#F0D6B7"/>
<path d="M75.6254 123.903L74.0518 124.897H76.4145C76.1574 124.558 75.8944 124.227 75.6254 123.903Z" fill="#81B0C4"/>
<path d="M11.0433 126.978V125.549C11.0433 125.376 11.1156 125.21 11.2442 125.088C11.3729 124.965 11.5473 124.897 11.7293 124.897H12.998C11.9518 121.956 10.7395 119.071 9.36656 116.255C16.9929 110.224 25.4563 105.222 34.5179 101.39C35.047 101.189 38.1539 104.84 39.8979 106.751C40.2273 107.142 40.587 107.508 40.9739 107.848C45.3734 110.562 50.0027 112.923 54.8139 114.907C55.2836 117.728 55.9974 120.507 56.9479 123.216C57.1228 123.753 57.2976 124.325 57.477 124.897H58.2033C58.3852 124.897 58.5597 124.965 58.6883 125.088C58.8169 125.21 58.8892 125.376 58.8892 125.549V126.223H59.5124C59.6943 126.223 59.8688 126.292 59.9974 126.414C60.1261 126.537 60.1983 126.703 60.1983 126.876V127.963H67.7796V126.876C67.7796 126.703 67.8519 126.537 67.9805 126.414C68.1092 126.292 68.2836 126.223 68.4656 126.223H71.9625V125.549C71.9625 125.376 72.0348 125.21 72.1634 125.088C72.2921 124.965 72.4666 124.897 72.6485 124.897H74.0697L75.6433 123.903C75.9123 124.227 76.1754 124.558 76.4324 124.897H80.2118C79.5502 123.877 78.8178 122.901 78.0195 121.975C78.5351 121.454 78.9924 120.883 79.499 120.35C81.7048 121.228 83.1394 119.198 84.8341 119.373C86.7754 119.569 88.3132 122.12 91.0839 121.953C91.0211 122.892 90.9763 123.83 90.9314 124.769V124.897H93.0565C93.1103 123.971 93.1596 123.067 93.1955 122.201C94.4701 121.602 95.9175 121.422 97.3112 121.689C99.2484 122.14 100.924 123.292 101.983 124.901H104.139C104.292 124.645 104.449 124.393 104.588 124.137C103.946 122.708 102.368 122.103 101.898 120.512C104.018 115.111 103.808 109.131 101.315 103.876C101.022 103.307 100.59 102.812 100.055 102.433C99.5196 102.055 98.8971 101.804 98.2392 101.701C97.4417 101.642 96.6429 101.799 95.9348 102.153C96.2863 101.699 96.7011 101.293 97.1677 100.946C98.6151 100.012 99.9253 98.8991 101.064 97.6361C104.256 100.08 106.179 102.379 109.241 104.994C110.9 106.41 114.173 108.108 114.496 110.394C114.537 111.273 114.455 112.154 114.254 113.013C114.025 114.212 113.716 115.466 113.554 116.238C112.896 119.199 112.079 122.126 111.106 125.007C111.204 125.064 111.285 125.144 111.342 125.238C111.398 125.333 111.428 125.44 111.429 125.549V127.963H113.079C114.236 124.517 115.37 120.989 116.513 117.347C117.816 114.386 118.542 111.226 118.656 108.018C118.307 105.386 113.994 102.622 111.721 100.537C110.461 99.3806 104.579 95.1322 104.238 93.5412C103.897 91.9502 106.636 88.5165 107.515 86.7762C108.659 84.3099 109.59 81.7594 110.299 79.1496C114.926 63.6788 115.397 42.4199 108.779 29.7046C105.139 24.0534 100.426 19.0952 94.8812 15.0826C84.5696 7.65221 65.4573 6.82898 53.0116 11.1883C49.6056 12.2427 46.3048 13.583 43.1483 15.1935C34.9976 19.7405 26.3449 22.786 23.9284 31.9482C17.9745 34.5075 16.1767 41.7587 16.4771 50.1531C16.8818 51.8723 17.1056 53.6255 17.1451 55.3868C16.9792 56.1717 15.8629 57.174 15.6387 57.6816C14.5057 60.9301 14.1627 64.3809 14.6357 67.7739C15.1086 71.1669 16.3852 74.4134 18.3691 77.2685C19.4689 78.828 20.8927 80.1566 22.5528 81.1726C24.2129 82.1886 26.074 82.8705 28.0216 83.1762C28.2059 85.6532 28.8861 88.074 30.0257 90.308C30.7878 91.899 33.6347 94.7569 32.5856 96.7872C30.5452 98.4269 28.2928 99.8117 25.8831 100.908C20.6914 103.872 16.9165 105.685 12.1373 108.969C9.0348 111.102 4.18834 111.367 4.96395 116.263C5.89203 119.916 7.10284 123.499 8.58647 126.982C8.69855 127.315 8.82408 127.643 8.94513 127.972H11.0523L11.0433 126.978ZM48.4834 18.576C48.2635 18.8275 48.0253 19.0641 47.7706 19.2841C46.3029 20.3146 44.8946 21.4195 43.5518 22.5941C41.8795 24.3557 40.01 29.0818 37.7908 29.6065C36.6728 29.6696 35.5511 29.6282 34.4417 29.4828C33.7313 29.533 33.029 29.6589 32.348 29.8581C30.7677 30.4377 29.1429 30.9012 27.4881 31.2444C30.8416 24.2704 41.2967 18.6315 49.4563 16.4305C49.9047 16.3111 50.2992 16.6011 50.6713 16.9807C50.622 18.2049 49.3442 18.1793 48.4834 18.576ZM37.7908 34.3582C39.1357 40.8459 35.2756 48.2379 36.93 55.0925C37.4904 57.4214 39.4406 61.0385 36.3292 61.1196C36.2164 59.5994 35.7067 58.1301 34.8463 56.8447C33.9858 55.5593 32.8018 54.4986 31.4016 53.7586C30.0014 53.0186 28.4291 52.6227 26.8275 52.6068C25.2258 52.591 23.6453 52.9557 22.2292 53.6678C21.894 53.8217 21.5678 53.9926 21.2518 54.1797C20.8035 49.1507 20.0593 42.0829 23.6638 38.308C27.1573 34.6918 31.9991 32.5195 37.1541 32.2553C37.4343 32.9418 37.6474 33.6515 37.7908 34.3752V34.3582ZM22.5789 75.9249C19.649 72.9026 18.0144 68.9463 17.9969 64.8348C18.0359 63.659 18.3258 62.5031 18.849 61.4373C19.3721 60.3714 20.1177 59.4179 21.0402 58.6348C21.9628 57.8516 23.0431 57.2551 24.2155 56.8815C25.388 56.5079 26.628 56.3651 27.8602 56.4617C30.9268 56.7816 32.4063 59.3366 33.2761 62.1689C33.5182 62.9665 33.7244 63.7855 33.8858 64.5831C36.1499 64.6983 39.4227 64.4893 40.4942 62.8087C40.3418 58.7053 38.3377 55.4167 38.4767 51.646C38.7795 48.3888 39.3612 45.1605 40.2162 41.9933C41.2334 38.428 41.0404 34.648 39.6648 31.1932C43.0138 23.9633 52.8412 18.2604 60.1087 14.8096C69.1156 10.5442 83.4533 13.9565 91.9402 18.5035C92.7067 18.9208 93.4409 19.3898 94.137 19.9068C96.6296 21.8587 98.857 24.0982 100.768 26.5737C101.817 27.8534 102.826 29.133 103.821 30.3657C99.4856 29.1415 95.751 30.9287 95.6075 34.0596C95.5889 34.4108 95.6129 34.7629 95.6793 35.1089C99.7142 31.607 106.56 35.0705 108.591 38.9478C110.277 43.6756 111.037 48.6577 110.833 53.6465C111.83 66.566 108.461 79.4505 101.216 90.4189C99.6292 93.1276 97.5584 95.5526 95.0964 97.5849C88.7077 101.85 78.9969 105.723 70.6803 103.07C59.6917 99.5598 54.6973 92.5943 48.6538 84.6179C49.3952 89.0117 51.7301 93.0199 55.2532 95.9469C57.9 99.1074 61.2262 101.693 65.0089 103.531C61.9917 102.857 57.3873 102.644 56.1096 105.237C53.7839 105.118 51.4661 104.887 49.1649 104.546C47.2383 104.402 45.3625 103.887 43.6516 103.032C41.9407 102.177 40.4302 101 39.212 99.5726C36.2502 95.1533 34.0622 90.3058 32.7336 85.2193C32.4106 84.0595 32.2227 82.8694 32.1732 81.6705C32.5677 79.6316 36.383 78.7401 34.8632 75.8908C32.0925 75.8652 31.4693 78.288 28.9272 78.5269C27.7298 78.5884 26.5337 78.3855 25.4324 77.9341C24.3311 77.4827 23.3544 76.7951 22.5789 75.9249ZM79.8307 115.935L79.6918 115.376C79.6021 115.022 79.5304 114.698 79.4766 114.361C79.3913 113.778 79.3807 113.188 79.4452 112.604C80.2004 112.068 81.1126 111.769 82.0545 111.75C82.509 111.811 82.944 111.965 83.3289 112.203C83.7138 112.441 84.0392 112.756 84.2822 113.126C84.5253 113.497 84.6799 113.913 84.7354 114.347C84.7909 114.78 84.7458 115.22 84.6032 115.635C84.4607 116.05 84.2243 116.43 83.9105 116.749C83.5968 117.067 83.2135 117.317 82.7875 117.479C82.3615 117.641 81.9033 117.713 81.4451 117.689C80.9869 117.664 80.5399 117.545 80.1356 117.338C80.0415 116.822 79.9428 116.395 79.8487 116.016L79.8307 115.935ZM44.9416 105.617C48.2044 106.737 51.6456 107.314 55.1143 107.323C55.1059 108.197 54.936 109.064 54.6121 109.882C54.4958 110.3 54.4341 110.73 54.4283 111.162C50.9879 110.749 47.7319 109.448 45.0134 107.4C44.8814 107.292 44.7743 107.159 44.6987 107.01C44.623 106.861 44.5805 106.699 44.5738 106.534C44.567 106.368 44.5962 106.203 44.6595 106.049C44.7228 105.895 44.8189 105.755 44.9416 105.638V105.617ZM77.9702 109.195C77.2298 109.004 76.5152 108.732 75.8406 108.385C75.4909 108.206 75.1367 108.001 74.7736 107.775C74.4104 107.549 74.0473 107.293 73.6662 107.012C73.7155 106.828 74.0204 106.909 74.0338 106.687C74.3082 106.803 74.5897 106.903 74.8767 106.986C75.4492 107.151 76.0381 107.26 76.6342 107.31C76.9345 107.336 77.2349 107.348 77.5308 107.353C77.8267 107.357 78.145 107.353 78.4544 107.327C81.8572 107.131 85.4752 105.8 88.5508 105.54C86.6095 106.747 84.9641 108.253 83.0901 109.541C82.5745 109.567 82.0859 109.579 81.6241 109.579C80.3945 109.615 79.1655 109.493 77.9702 109.217V109.195ZM69.5774 125.003C67.0328 126.312 64.2386 127.122 61.3595 127.388C60.6511 127.23 60.4628 126.534 60.2252 125.745C60.167 125.549 60.1087 125.353 60.0369 125.152C59.9652 124.952 59.9024 124.79 59.8262 124.606C58.5894 122.037 57.7671 119.305 57.3873 116.502C57.3873 116.127 57.347 115.726 57.329 115.308C57.1542 111.281 57.19 105.817 61.3192 106.568C65.0865 107.328 68.7214 108.593 72.115 110.326C72.9847 110.778 73.6707 111.285 74.4687 111.699C74.8877 111.922 75.3293 112.103 75.7868 112.241C76.0473 112.318 76.3122 112.381 76.5804 112.429C76.8769 112.482 77.1762 112.521 77.477 112.544C77.477 112.876 77.4501 113.213 77.4367 113.55C76.1508 114.135 74.7826 114.539 73.3748 114.749C72.9252 114.858 72.4881 115.01 72.0701 115.201C72.627 115.224 73.1823 115.275 73.7334 115.355C75.1626 115.557 76.5489 115.975 77.8402 116.592V116.86C77.8103 117.611 77.7789 118.36 77.746 119.108C75.1382 121.22 72.4113 123.195 69.5774 125.024V125.003ZM88.6091 118.451C88.1189 118.341 87.6377 118.221 87.1654 118.093C87.1474 116.812 87.1998 115.53 87.3224 114.254C87.5968 114.075 87.8994 113.938 88.219 113.849C89.3344 113.609 90.4704 113.467 91.6129 113.422C91.2627 113.261 90.8981 113.13 90.5234 113.03C90.3307 112.979 90.1289 112.932 89.9272 112.894C89.5198 112.809 89.1061 112.754 88.6898 112.731C88.0766 112.705 87.4624 112.759 86.8651 112.894C86.7505 112.063 86.4851 111.258 86.0805 110.513L86.336 110.415C89.0664 109.272 94.935 103.893 98.284 105.753C99.1185 106.487 99.6682 107.467 99.8443 108.534C100.346 110.461 100.646 112.429 100.741 114.412C100.825 115.658 100.715 116.908 100.414 118.123C100.27 118.707 100.008 119.259 99.6425 119.748C95.9284 119.681 92.2313 119.252 88.6091 118.468V118.451Z" fill="#231F20"/>
<path d="M68.6492 80.4548C65.8875 79.1752 63.9148 79.879 63.5562 80.3354C62.8747 81.1885 64.287 85.9061 64.287 85.9061L65.632 86.1663C65.3764 80.9752 68.6492 80.4548 68.6492 80.4548Z" fill="#F7E4CD"/>
<path d="M85.9683 123.532C85.5833 123.532 85.2134 123.674 84.9354 123.927C84.6574 124.181 84.4926 124.526 84.4753 124.892H87.4612C87.4439 124.526 87.2792 124.181 87.0012 123.927C86.7232 123.674 86.3533 123.532 85.9683 123.532Z" fill="#1D1919"/>
<path d="M11.7292 127.631H58.2031C58.3851 127.631 58.5595 127.562 58.6882 127.44C58.8168 127.317 58.8891 127.151 58.8891 126.978V125.549C58.8891 125.376 58.8168 125.21 58.6882 125.088C58.5595 124.965 58.3851 124.897 58.2031 124.897H11.7292C11.5472 124.897 11.3728 124.965 11.2441 125.088C11.1155 125.21 11.0432 125.376 11.0432 125.549V126.978C11.0432 127.151 11.1155 127.317 11.2441 127.44C11.3728 127.562 11.5472 127.631 11.7292 127.631Z" fill="#231F20"/>
<path d="M71.949 126.978C71.949 127.151 72.0212 127.317 72.1499 127.44C72.2785 127.562 72.453 127.631 72.6349 127.631H110.743C110.925 127.631 111.099 127.562 111.228 127.44C111.357 127.317 111.429 127.151 111.429 126.978V125.549C111.428 125.44 111.398 125.333 111.342 125.238C111.285 125.144 111.204 125.064 111.106 125.007C110.999 124.938 110.873 124.899 110.743 124.897H72.6349C72.453 124.897 72.2785 124.965 72.1499 125.088C72.0212 125.21 71.949 125.376 71.949 125.549V126.978Z" fill="#231F20"/>
</g>
<defs>
<clipPath id="clip0_14_49">
<rect width="125" height="125" fill="white"/>
</clipPath>
</defs>
</svg>
