<svg width="125" height="115" viewBox="0 0 125 115" fill="none" xmlns="http://www.w3.org/2000/svg">
<g clip-path="url(#clip0_14_43)">
<path d="M102.772 37.2358C101.441 36.7643 100.1 36.3275 98.7485 35.9259C98.9756 34.9676 99.1845 34.0208 99.3701 33.0907C102.416 17.8174 100.425 5.51293 93.624 1.4617C87.1035 -2.42207 76.4398 1.62764 65.6702 11.3103C64.6088 12.2663 63.571 13.2498 62.5577 14.26C61.8793 13.5883 61.189 12.9296 60.4871 12.2843C49.1999 1.93128 37.8864 -2.43216 31.093 1.63067C24.5784 5.52655 22.6494 17.0936 25.3913 31.5685C25.6641 33.0021 25.9721 34.4283 26.3151 35.8457C24.7137 36.3158 23.1684 36.8161 21.6895 37.3488C8.45621 42.1152 0.00524902 49.5847 0.00524902 57.3325C0.00524902 65.3346 9.07774 73.3609 22.8608 78.2277C23.9782 78.6207 25.1049 78.9848 26.2399 79.3197C25.8713 80.8463 25.544 82.3833 25.2585 83.9288C22.6445 98.1525 24.6858 109.446 31.1828 113.317C37.8932 117.315 49.156 113.206 60.1223 103.303C61.0116 102.498 61.8813 101.67 62.7305 100.82C63.8279 101.913 64.9545 102.975 66.1091 104.004C76.7323 113.447 87.2236 117.261 93.7143 113.379C100.418 109.37 102.597 97.237 99.7685 82.4762C99.5456 81.3198 99.2957 80.1691 99.019 79.0252C99.81 78.7831 100.586 78.5339 101.343 78.2746C115.672 73.3705 124.995 65.4415 124.995 57.3325C124.995 49.5564 116.271 42.0365 102.772 37.2358ZM99.664 73.0391C98.9804 73.2726 98.2793 73.4981 97.5645 73.7175C95.9827 68.544 93.8481 63.0432 91.2355 57.3593C93.7284 51.811 95.781 46.3803 97.3185 41.2406C98.5972 41.6229 99.8378 42.0259 101.034 42.4511C112.6 46.5649 119.655 52.6463 119.655 57.3325C119.655 62.3239 112.036 68.8038 99.664 73.0391ZM94.5306 83.5475C95.7815 90.0742 95.9597 95.9756 95.1312 100.589C94.3871 104.735 92.8901 107.498 91.0387 108.605C87.1001 110.961 78.6765 107.899 69.5918 99.823C68.5178 98.8664 67.4698 97.8791 66.449 96.8623C69.9711 92.8832 73.4909 88.2574 76.9261 83.1198C82.9686 82.566 88.6771 81.6601 93.8539 80.4238C94.1033 81.4594 94.3289 82.5009 94.5306 83.5475ZM42.617 108.198C38.7686 109.602 35.7035 109.642 33.8506 108.539C29.908 106.19 28.269 97.1215 30.5047 84.9578C30.7704 83.5204 31.0747 82.0909 31.4172 80.671C36.5369 81.8411 42.2039 82.6825 48.2605 83.1899C51.7192 88.2171 55.3405 92.8378 58.9901 96.884C58.2145 97.6593 57.4206 98.4147 56.609 99.1497C51.7593 103.529 46.8998 106.636 42.617 108.198ZM24.5882 73.0083C18.4935 70.8561 13.4602 68.0593 10.0103 65.0073C6.90995 62.2649 5.34514 59.5417 5.34514 57.3325C5.34514 52.6306 12.1302 46.6335 23.4472 42.5576C24.8206 42.0633 26.258 41.5967 27.7495 41.1589C29.3139 46.4146 31.3654 51.9099 33.8413 57.4667C31.3332 63.1057 29.2523 68.6888 27.6729 74.0065C26.6369 73.7 25.6083 73.3671 24.5882 73.0083ZM30.6316 30.5088C28.2827 18.1074 29.8426 8.7526 33.7686 6.40468C37.9499 3.90394 47.1962 7.46944 56.9419 16.4092C57.5774 16.9934 58.2027 17.5896 58.8173 18.1972C55.1857 22.2258 51.5977 26.8121 48.1697 31.8096C42.2913 32.3725 36.6643 33.2763 31.4909 34.4874C31.1722 33.169 30.8857 31.8426 30.6316 30.5093V30.5088ZM84.5466 44.2624C83.3246 42.0819 82.0574 39.9288 80.7456 37.8047C84.7336 38.3258 88.5546 39.0173 92.1426 39.8626C91.0656 43.4296 89.7229 47.1586 88.1425 50.9818C86.9873 48.7175 85.7884 46.4772 84.5466 44.2624ZM62.5601 22.1395C65.0228 24.896 67.4894 27.9732 69.9155 31.3123C64.994 31.0722 60.0643 31.0711 55.1428 31.3092C57.5713 28.001 60.0589 24.9277 62.5601 22.1395ZM40.4326 44.3002C39.2063 46.4972 38.0298 48.7235 36.904 50.9773C35.3495 47.1676 34.019 43.4216 32.9327 39.8041C36.4988 38.9799 40.3017 38.3061 44.2643 37.7946C42.9379 39.9317 41.6603 42.1007 40.4326 44.2997V44.3002ZM44.378 77.2628C40.2841 76.7907 36.4241 76.1517 32.859 75.3497C33.9624 71.6677 35.3221 67.8419 36.9104 63.9506C38.0406 66.206 39.222 68.4336 40.4536 70.6317C41.7201 72.8913 43.0315 75.1046 44.378 77.2628ZM62.7076 92.9139C60.1765 90.0934 57.6523 86.9728 55.1872 83.6166C57.5806 83.7134 60.0203 83.7629 62.5001 83.7629C65.0477 83.7629 67.5661 83.7038 70.0449 83.5899C67.611 87.0066 65.1537 90.1317 62.7076 92.9139ZM88.1928 63.7518C89.8635 67.6861 91.2716 71.4917 92.3897 75.1106C88.766 75.965 84.8532 76.653 80.7305 77.164C82.0516 75.0004 83.3308 72.81 84.5676 70.5938C85.825 68.3413 87.0337 66.06 88.1928 63.7518ZM79.9425 67.8379C78.0492 71.2356 76.0494 74.5688 73.9464 77.8323C70.1369 78.111 66.3191 78.2495 62.5001 78.2474C58.6103 78.2474 54.8269 78.1223 51.1836 77.8782C49.0257 74.6223 46.9878 71.2832 45.0743 67.8681H45.0748C43.1702 64.4712 41.3913 61.0007 39.7417 57.4642C41.3871 53.9269 43.1606 50.4547 45.0586 47.0552L45.0582 47.0557C46.9555 43.6552 48.9771 40.3304 51.1187 37.0885C54.8357 36.798 58.6474 36.6467 62.4996 36.6467H62.5001C66.3699 36.6467 70.1864 36.7995 73.9025 37.092C76.0224 40.3291 78.0312 43.6425 79.9249 47.0259C81.8292 50.418 83.6263 53.8732 85.3131 57.386C83.6436 60.9347 81.8522 64.4209 79.9425 67.8379ZM90.9572 6.24025C95.1424 8.73394 96.7702 18.7899 94.1405 31.977C93.9726 32.8184 93.7841 33.6753 93.579 34.5444C88.3929 33.3076 82.7621 32.3881 76.8666 31.8167C73.4323 26.7642 69.8735 22.1708 66.301 18.1942C67.2373 17.2618 68.1958 16.3537 69.1758 15.4705C78.4035 7.17488 87.0278 3.8994 90.9572 6.24025ZM62.5001 45.8023C68.6641 45.8023 73.6613 50.9647 73.6613 57.3325C73.6613 63.7004 68.6641 68.8628 62.5001 68.8628C56.336 68.8628 51.3389 63.7004 51.3389 57.3325C51.3389 50.9647 56.336 45.8023 62.5001 45.8023Z" fill="#00D8FF"/>
</g>
<defs>
<clipPath id="clip0_14_43">
<rect width="125" height="115" fill="white"/>
</clipPath>
</defs>
</svg>
