<svg height="180" viewBox="0 0 120 120" width="180" xmlns="http://www.w3.org/2000/svg"><g fill="#7247cf" fill-rule="evenodd" transform="matrix(.13 0 0 -.13 0 117.3)"><path d="m28.7 626.7c109.3 51.9 205.4 85.8 296.5 102.4 24.3 4.4 48.3 7.6 72.2 9.6v-.4-71.9-.2-41.9-41.9c15.8 12.8 36 20.5 58 20.5s42.1-7.7 58-20.5v41.9 41.8.3 71.8.5c23.9-2 47.9-5.2 72.2-9.7 92.1-16.9 187.9-51.2 296.4-102.4 4.5 37.7 6.7 75.4 6.7 112.8-111.3 52.9-209.1 88.4-303.1 105.6-24.2 4.4-48.2 7.7-72.2 9.7-38.6 3.2-77 3.2-115.9 0-23.8-2-47.8-5.2-72.2-9.6-93.1-17-191.1-51.9-303.2-105.6 0-37.7 2.2-75.4 6.6-112.8"/><path d="m140.8 288.7-.1 1.2c0-.4.1-.8.1-1.2zm518.8 42.2c-21.7-34.1-46.4-66.4-74.1-96.3-22.1-23.9-46.2-46.3-72.2-67-18.4-14.7-37.7-28.5-58-41.5-20.3 12.9-39.6 26.7-57.9 41.3-26 20.7-50 43-72.2 66.7-28.1 30.1-53 62.6-74.8 97 25.6 8 50.4 14.6 74.8 19.8v116.7c-41-8.2-83.1-20.2-127.3-36-16-5.7-32.2-12-48.8-18.7-8.8-3.6-17.6-7.2-26.5-11.1l-31.2-13.6 4.5-11.8c13.1-29.9 28-59.2 44.9-87.7 25.8-43.6 56-85.2 90.9-124l.4-.6c5-5.5 10-11 15.2-16.4 24-25.1 50-48.8 78-71.1 22.7-18 46.7-35.1 72.2-51 18.6-11.7 37.9-22.7 58-33.2 20.1 10.5 39.4 21.5 58 33.2 25.5 16 49.5 33.1 72.2 51.1 27.6 22 53.1 45.4 76.7 70 5.1 5.3 10.1 10.7 15 16.1 35.5 39.3 66.3 81.5 92.4 125.7 16.8 28.5 31.8 57.8 44.9 87.7l4.5 11.8-5.9 2.5-.4.2-.4.2-.4.2-.4.2c-7.9 3.5-15.7 6.9-23.5 10.2-8.9 3.8-17.7 7.5-26.4 11-16.7 6.7-33 13-49.1 18.7-3.6 1.3-7.2 2.6-10.8 3.8v75.9c11.8-3.8 23.6-7.9 35.6-12.2 34.6-12.4 70.3-27 107.4-43.6 11.1 34.1 20 68.8 26.8 103.7-37.8 17.6-74 33.1-109.1 46.5-20.6 7.9-40.8 15-60.7 21.5-39.7 12.8-78.1 22.7-115.9 29.7v-115.8-73.4-116.8c24.2-5.2 48.8-11.7 74.1-19.7zm110.1-41.1v-.1-.1-.1-.1-.1-.1-.1-.1-.1-.1-.1-.1-.1-.1-.1-.1zm0-.5v-.1zm-33.1 14.2c4.7-1.9 9.5-3.8 14.3-5.7zm-577-5.6c4.9 2 9.7 4 14.6 5.9z"/><path d="m65.6 456c37.2 16.7 73 31.2 107.5 43.6 53 18.9 103.3 32.7 152.1 41.6v115.9c-56.4-10.3-114.7-27.2-176.9-50.9-35.1-13.3-71.4-28.8-109.3-46.5 6.8-35.1 15.6-69.8 26.6-103.7"/><path d="m518.9 510.7c0 35.1-28.5 63.6-63.6 63.6s-63.6-28.5-63.6-63.6c0-26.5 16.2-49.2 39.3-58.8l-20.2-176.6h89.1l-20.2 176.6c23.1 9.6 39.3 32.3 39.3 58.8"/><path d="m65.6 456c37.2 16.7 73 31.2 107.5 43.6 53 18.9 103.3 32.7 152.1 41.6v115.9c-56.4-10.3-114.7-27.2-176.9-50.9-35.1-13.3-71.4-28.8-109.3-46.5 6.8-35.1 15.6-69.8 26.6-103.7"/></g></svg>